<?xml version="1.0" encoding="UTF-8"?>
<svg width="100" height="100" version="1.1" viewBox="0 0 100 100" xmlns="http://www.w3.org/2000/svg" xmlns:cc="http://creativecommons.org/ns#" xmlns:dc="http://purl.org/dc/elements/1.1/" xmlns:rdf="http://www.w3.org/1999/02/22-rdf-syntax-ns#">
 <metadata>
  <rdf:RDF>
   <cc:Work rdf:about="">
    <dc:format>image/svg+xml</dc:format>
    <dc:type rdf:resource="http://purl.org/dc/dcmitype/StillImage"/>
    <dc:title/>
   </cc:Work>
  </rdf:RDF>
 </metadata>
 <path d="m84.62 81.354-23.671-27.167-11.499-13.218-2.6521-3.0363c3.1469-9.2688 1.4052-20.136-5.2647-27.784-7.0064-8.0589-17.516-9.657-25.928-5.228l15.062 17.305-10.51 12.077-15.418-17.305c-4.1761 9.657-2.4344 21.734 4.572 29.793 6.6501 7.6479 16.111 9.657 24.166 6.0499l2.85 3.2646-20.821 24.017c-1.5042 1.3013-1.5042 4.3376 0.37605 6.0727l8.6689 9.9766c1.5042 1.7351 3.7803 1.7351 5.2845 0l19.02-25.661 22.444 25.775c1.4052 1.6209 3.5032 1.6209 4.9084 0l8.0553-9.2688c1.7615-1.6209 1.7615-4.4518 0.35626-5.6618z" stroke-width=".21257"/>
 <path d="m97.188 40.991-6.8282-7.7849c-0.43542-0.50225-1.1479-0.50225-1.5834 0l-0.7323 0.8447-3.6615-3.6071s0.2375-2.283-0.96981-4.2692c-1.2271-1.9862-3.1865-4.5203-4.5917-6.1412-1.4052-1.5981-6.7491-7.7393-13.795-11.734-7.0657-4.0409-12.053-5.7987-17.991-5.7987v6.7804s5.6803 3.7897 8.9262 6.7804c3.2261 2.9907 3.3251 13.584 3.3251 13.584l-5.6407 6.5065 11.182 12.807 6.1355-8.2872c2.5532-0.79904 4.7105-0.86753 5.9772-0.06849l2.7115 3.0363-1.9 2.1688c-0.43542 0.50225-0.43542 1.3013 0 1.8035l6.8282 7.7849c0.43542 0.50225 1.1479 0.50225 1.5834 0l11.024-12.602c0.41562-0.50225 0.41562-1.3241 0-1.8035z" stroke-width=".21257"/>
</svg>
